<svg xmlns="http://www.w3.org/2000/svg" viewBox="0 0 100 100">
  <!-- ベースクッキー -->
  <circle cx="50" cy="50" r="45" fill="#f0e6d2" stroke="#dfd3b6" stroke-width="2"/>
  <!-- クッキーのテクスチャ -->
  <circle cx="25" cy="30" r="5" fill="#dfd3b6" opacity="0.5"/>
  <circle cx="65" cy="25" r="6" fill="#dfd3b6" opacity="0.5"/>
  <circle cx="30" cy="70" r="8" fill="#dfd3b6" opacity="0.5"/>
  <circle cx="70" cy="60" r="7" fill="#dfd3b6" opacity="0.5"/>
  <!-- ココナッツフレーク -->
  <rect x="35" y="40" width="8" height="2" fill="white" rx="1" transform="rotate(-30 35 40)"/>
  <rect x="60" y="35" width="9" height="2" fill="white" rx="1" transform="rotate(15 60 35)"/>
  <rect x="45" y="65" width="7" height="2" fill="white" rx="1" transform="rotate(45 45 65)"/>
  <rect x="65" y="55" width="8" height="2" fill="white" rx="1" transform="rotate(-15 65 55)"/>
  <rect x="25" y="55" width="7" height="2" fill="white" rx="1" transform="rotate(30 25 55)"/>
  <rect x="50" y="25" width="6" height="2" fill="white" rx="1" transform="rotate(60 50 25)"/>
  <rect x="40" y="50" width="8" height="2" fill="white" rx="1" transform="rotate(0 40 50)"/>
  <rect x="30" y="35" width="6" height="2" fill="white" rx="1" transform="rotate(-60 30 35)"/>
  <rect x="55" y="45" width="7" height="2" fill="white" rx="1" transform="rotate(75 55 45)"/>
  <rect x="35" y="60" width="9" height="2" fill="white" rx="1" transform="rotate(-45 35 60)"/>
</svg>
