<svg xmlns="http://www.w3.org/2000/svg" viewBox="0 0 100 100">
  <!-- ベースクッキー -->
  <circle cx="50" cy="50" r="45" fill="#c1d5a8" stroke="#a3c287" stroke-width="2"/>
  <!-- クッキーのテクスチャ -->
  <circle cx="25" cy="30" r="5" fill="#a3c287" opacity="0.5"/>
  <circle cx="65" cy="25" r="6" fill="#a3c287" opacity="0.5"/>
  <circle cx="30" cy="70" r="8" fill="#a3c287" opacity="0.5"/>
  <circle cx="70" cy="60" r="7" fill="#a3c287" opacity="0.5"/>
  <!-- 抹茶のパウダー効果 -->
  <circle cx="50" cy="50" r="35" fill="#8fb36d" opacity="0.2"/>
  <path d="M30,30 Q50,20 70,30 T65,60 T30,60 T30,30" fill="#8fb36d" opacity="0.15"/>
  <!-- 抹茶の粉末 -->
  <circle cx="35" cy="40" r="1.5" fill="#658b41"/>
  <circle cx="60" cy="35" r="1" fill="#658b41"/>
  <circle cx="45" cy="65" r="1.2" fill="#658b41"/>
  <circle cx="65" cy="55" r="1" fill="#658b41"/>
  <circle cx="25" cy="55" r="1.5" fill="#658b41"/>
  <circle cx="50" cy="25" r="1" fill="#658b41"/>
  <circle cx="40" cy="50" r="1.2" fill="#658b41"/>
  <circle cx="55" cy="45" r="1" fill="#658b41"/>
  <circle cx="30" cy="60" r="1.5" fill="#658b41"/>
  <circle cx="70" cy="40" r="1" fill="#658b41"/>
</svg>
