<svg xmlns="http://www.w3.org/2000/svg" viewBox="0 0 100 100">
  <!-- ベースクッキー -->
  <circle cx="50" cy="50" r="45" fill="#f2d2d6" stroke="#e8b7bd" stroke-width="2"/>
  <!-- クッキーのテクスチャ -->
  <circle cx="25" cy="30" r="5" fill="#e8b7bd" opacity="0.5"/>
  <circle cx="65" cy="25" r="6" fill="#e8b7bd" opacity="0.5"/>
  <circle cx="30" cy="70" r="8" fill="#e8b7bd" opacity="0.5"/>
  <circle cx="70" cy="60" r="7" fill="#e8b7bd" opacity="0.5"/>
  <!-- イチゴの粒々 -->
  <circle cx="35" cy="40" r="2" fill="#e83f5b"/>
  <circle cx="60" cy="35" r="2.5" fill="#e83f5b"/>
  <circle cx="45" cy="65" r="3" fill="#e83f5b"/>
  <circle cx="65" cy="55" r="2" fill="#e83f5b"/>
  <circle cx="25" cy="55" r="2.5" fill="#e83f5b"/>
  <circle cx="50" cy="25" r="2" fill="#e83f5b"/>
  <circle cx="40" cy="50" r="3" fill="#e83f5b"/>
  <circle cx="55" cy="45" r="2.5" fill="#e83f5b"/>
  <circle cx="30" cy="35" r="2" fill="#e83f5b"/>
  <circle cx="70" cy="40" r="2.5" fill="#e83f5b"/>
  <!-- イチゴの種 -->
  <circle cx="35" cy="40" r="0.4" fill="#ffed66"/>
  <circle cx="60" cy="35" r="0.4" fill="#ffed66"/>
  <circle cx="45" cy="65" r="0.4" fill="#ffed66"/>
  <circle cx="65" cy="55" r="0.4" fill="#ffed66"/>
  <circle cx="25" cy="55" r="0.4" fill="#ffed66"/>
  <circle cx="50" cy="25" r="0.4" fill="#ffed66"/>
  <circle cx="40" cy="50" r="0.4" fill="#ffed66"/>
  <circle cx="55" cy="45" r="0.4" fill="#ffed66"/>
  <circle cx="30" cy="35" r="0.4" fill="#ffed66"/>
  <circle cx="70" cy="40" r="0.4" fill="#ffed66"/>
</svg>
